<svg id="svg" version="1.1" xmlns="http://www.w3.org/2000/svg" xmlns:xlink="http://www.w3.org/1999/xlink" width="400" height="400" viewBox="0, 0, 400,400"><g id="svgg"><path id="path0" d="M17.000 0.379 C 16.560 0.545,15.795 0.819,15.300 0.987 C 14.805 1.156,14.400 1.452,14.400 1.647 C 14.400 1.841,14.118 2.000,13.773 2.000 C 12.925 2.000,8.667 6.349,7.967 7.930 C 7.658 8.629,7.269 9.200,7.102 9.200 C 6.936 9.200,6.800 9.650,6.800 10.200 C 6.800 10.750,6.620 11.200,6.400 11.200 C 6.180 11.200,6.000 12.089,6.000 13.176 C 6.000 14.263,5.820 15.264,5.600 15.400 C 5.346 15.557,5.200 20.726,5.200 29.588 L 5.200 43.530 6.300 43.312 C 8.134 42.950,365.520 42.742,369.510 43.101 L 373.219 43.435 373.060 29.017 C 372.905 14.960,372.690 11.426,371.958 10.974 C 371.761 10.852,371.600 10.403,371.600 9.976 C 371.600 9.549,371.420 9.200,371.200 9.200 C 370.980 9.200,370.800 8.880,370.800 8.488 C 370.800 8.097,370.440 7.517,370.000 7.200 C 369.560 6.883,369.200 6.411,369.200 6.152 C 369.200 5.538,366.462 2.800,365.848 2.800 C 365.589 2.800,365.117 2.440,364.800 2.000 C 364.483 1.560,363.918 1.200,363.545 1.200 C 363.172 1.200,362.792 0.975,362.700 0.700 C 362.511 0.134,18.495 -0.185,17.000 0.379 M86.400 16.312 C 92.355 20.016,88.353 29.835,81.653 27.959 C 76.363 26.478,74.928 20.166,79.084 16.653 C 80.835 15.171,84.307 15.010,86.400 16.312 M112.700 16.664 C 118.236 20.826,113.891 29.899,107.350 27.837 C 102.590 26.336,101.003 21.289,104.094 17.484 C 106.017 15.117,110.123 14.725,112.700 16.664 M60.624 16.415 C 63.237 18.030,64.221 21.616,62.809 24.382 C 59.943 30.001,51.615 28.555,50.912 22.316 C 50.341 17.247,56.205 13.684,60.624 16.415 M179.167 80.157 C 179.075 80.244,177.115 80.517,174.811 80.765 C 160.381 82.318,144.813 87.500,131.400 95.215 C 125.252 98.751,121.551 101.340,113.000 108.087 C 110.802 109.822,103.024 117.634,100.344 120.800 C 69.055 157.756,63.919 211.196,87.669 252.694 C 88.143 253.522,88.762 254.650,89.045 255.200 C 99.060 274.676,124.480 295.903,148.501 304.850 C 170.277 312.960,194.260 314.326,217.000 308.749 C 227.420 306.194,234.757 303.340,244.800 297.935 C 256.332 291.728,271.651 279.118,278.007 270.600 C 278.992 269.280,279.897 268.110,280.018 268.000 C 280.676 267.401,284.162 262.575,285.940 259.800 C 287.069 258.040,288.129 256.411,288.296 256.180 C 289.701 254.237,294.369 245.270,296.197 241.000 C 308.417 212.456,308.173 177.829,295.549 149.232 C 291.699 140.510,284.377 128.455,279.818 123.330 C 279.588 123.072,278.680 121.955,277.800 120.847 C 272.922 114.709,260.564 103.810,252.621 98.643 C 247.782 95.494,236.066 89.200,235.044 89.200 C 234.905 89.200,234.028 88.843,233.096 88.406 C 226.824 85.470,212.359 81.801,202.335 80.605 C 197.809 80.064,179.637 79.713,179.167 80.157 M199.800 109.978 C 201.560 110.199,203.990 110.573,205.200 110.810 C 206.410 111.047,208.076 111.341,208.903 111.463 C 209.729 111.585,210.505 111.845,210.626 112.042 C 210.748 112.239,211.199 112.400,211.629 112.400 C 212.526 112.400,219.946 114.779,222.253 115.807 C 227.324 118.066,229.699 119.249,232.141 120.734 C 233.648 121.650,234.966 122.400,235.069 122.400 C 235.297 122.400,238.920 124.850,239.200 125.193 C 239.310 125.328,240.030 125.871,240.800 126.400 C 241.570 126.929,242.290 127.460,242.400 127.581 C 242.510 127.701,243.500 128.506,244.600 129.368 C 247.030 131.273,254.661 138.934,256.248 141.061 C 256.879 141.908,257.495 142.690,257.617 142.800 C 257.739 142.910,258.275 143.630,258.808 144.400 C 259.342 145.170,260.098 146.149,260.489 146.575 C 260.880 147.002,261.200 147.572,261.200 147.842 C 261.200 148.112,261.339 148.393,261.510 148.467 C 262.956 149.089,269.647 162.866,271.481 169.000 C 271.810 170.100,272.242 171.413,272.440 171.919 C 272.638 172.424,272.800 173.269,272.800 173.795 C 272.800 174.322,272.961 174.852,273.158 174.974 C 273.355 175.095,273.615 175.871,273.737 176.697 C 273.859 177.524,274.154 179.190,274.391 180.400 C 276.374 190.497,276.044 205.503,273.628 215.100 C 273.393 216.035,273.041 217.475,272.847 218.300 C 272.390 220.245,270.175 226.878,269.358 228.747 C 266.326 235.688,261.054 245.067,259.923 245.533 C 259.745 245.607,259.600 245.922,259.600 246.233 C 259.600 246.545,259.459 246.800,259.286 246.800 C 259.114 246.800,258.666 247.319,258.291 247.954 C 257.260 249.699,251.152 256.532,248.466 258.944 C 247.732 259.604,246.562 260.676,245.866 261.326 C 245.170 261.977,243.970 262.979,243.200 263.553 C 242.430 264.126,241.710 264.698,241.600 264.823 C 239.606 267.091,228.222 273.475,220.800 276.487 C 220.250 276.711,219.487 277.052,219.105 277.247 C 218.723 277.441,218.059 277.600,217.629 277.600 C 217.199 277.600,216.736 277.780,216.600 278.000 C 216.464 278.220,215.924 278.400,215.400 278.400 C 214.876 278.400,214.348 278.560,214.227 278.756 C 214.106 278.951,213.421 279.208,212.704 279.327 C 211.987 279.445,210.590 279.744,209.600 279.991 C 203.237 281.579,199.640 282.024,191.200 282.268 C 183.729 282.484,180.720 282.288,174.200 281.161 C 169.779 280.397,165.418 279.339,164.305 278.761 C 163.923 278.562,163.259 278.400,162.829 278.400 C 162.399 278.400,161.936 278.220,161.800 278.000 C 161.664 277.780,161.201 277.600,160.771 277.600 C 160.341 277.600,159.677 277.441,159.295 277.247 C 158.913 277.052,158.150 276.711,157.600 276.487 C 139.242 269.036,125.010 256.959,114.682 240.068 C 113.427 238.015,112.400 236.080,112.400 235.768 C 112.400 235.456,112.264 235.200,112.098 235.200 C 111.931 235.200,111.556 234.615,111.263 233.900 C 110.971 233.185,110.364 231.790,109.915 230.800 C 109.466 229.810,108.941 228.595,108.749 228.100 C 108.557 227.605,108.229 226.795,108.020 226.300 C 107.525 225.126,106.391 221.724,105.987 220.200 C 105.812 219.540,105.408 218.010,105.088 216.800 C 104.518 214.640,104.110 212.577,103.149 207.000 C 102.522 203.363,102.520 188.253,103.146 184.600 C 103.812 180.709,104.400 177.649,104.797 176.000 C 105.565 172.811,106.098 170.961,106.439 170.305 C 106.638 169.923,106.800 169.284,106.800 168.885 C 106.800 168.486,106.943 167.989,107.118 167.780 C 107.293 167.571,107.666 166.680,107.946 165.800 C 108.649 163.589,112.441 155.503,114.324 152.200 C 116.065 149.144,119.934 143.651,122.775 140.200 C 124.796 137.746,133.082 129.739,135.400 128.000 C 136.720 127.010,137.860 126.065,137.933 125.900 C 138.007 125.735,138.307 125.600,138.600 125.600 C 138.893 125.600,139.193 125.455,139.267 125.277 C 140.008 123.480,158.561 114.000,161.337 114.000 C 161.676 114.000,162.051 113.841,162.171 113.646 C 162.292 113.451,162.887 113.196,163.495 113.079 C 164.103 112.962,165.320 112.657,166.200 112.403 C 169.849 111.347,174.573 110.474,179.151 110.011 C 181.214 109.802,183.014 109.518,183.151 109.379 C 183.489 109.036,195.829 109.480,199.800 109.978 M293.697 299.703 C 287.924 305.479,283.200 310.369,283.200 310.570 C 283.200 310.770,287.655 315.407,293.100 320.875 C 304.625 332.448,303.743 331.104,301.384 333.495 C 297.356 337.579,296.898 341.662,300.000 345.832 C 300.770 346.867,301.778 348.328,302.241 349.078 C 303.653 351.370,343.740 392.123,346.439 394.011 C 347.188 394.534,348.091 395.286,348.447 395.681 C 348.803 396.076,349.388 396.400,349.747 396.400 C 350.106 396.400,350.400 396.580,350.400 396.800 C 350.400 397.020,350.760 397.200,351.200 397.200 C 351.640 397.200,352.000 397.380,352.000 397.600 C 352.000 397.820,352.360 398.000,352.800 398.000 C 353.240 398.000,353.600 398.141,353.600 398.313 C 353.600 399.692,374.648 400.658,375.100 399.300 C 375.192 399.025,375.612 398.800,376.033 398.800 C 376.455 398.800,376.800 398.620,376.800 398.400 C 376.800 398.180,377.034 398.000,377.320 398.000 C 378.056 398.000,379.993 397.059,379.997 396.700 C 379.999 396.535,380.320 396.400,380.712 396.400 C 381.103 396.400,381.683 396.040,382.000 395.600 C 382.317 395.160,382.808 394.800,383.091 394.800 C 383.722 394.800,388.800 389.855,388.800 389.241 C 388.800 388.999,388.945 388.800,389.121 388.800 C 389.600 388.800,391.600 384.930,391.600 384.003 C 391.600 383.561,391.780 383.200,392.000 383.200 C 392.220 383.200,392.400 382.840,392.400 382.400 C 392.400 381.960,392.580 381.600,392.800 381.600 C 393.020 381.600,393.200 381.071,393.200 380.424 C 393.200 379.777,393.380 379.136,393.600 379.000 C 393.820 378.864,394.000 377.403,394.000 375.753 C 394.000 373.855,394.147 372.844,394.400 373.000 C 394.644 373.151,394.800 372.545,394.800 371.447 C 394.800 370.457,394.620 369.536,394.400 369.400 C 394.180 369.264,394.000 368.083,394.000 366.776 C 394.000 365.459,393.822 364.400,393.600 364.400 C 393.380 364.400,393.200 363.669,393.200 362.776 C 393.200 361.796,393.042 361.251,392.800 361.400 C 392.573 361.540,392.400 361.204,392.400 360.624 C 392.400 360.061,392.220 359.600,392.000 359.600 C 391.780 359.600,391.600 359.320,391.600 358.977 C 391.600 358.252,389.832 354.974,388.982 354.125 C 388.662 353.805,388.400 353.376,388.400 353.172 C 388.400 352.968,386.060 350.468,383.200 347.615 C 380.340 344.762,378.000 342.527,378.000 342.647 C 378.000 342.863,376.002 340.775,373.915 338.379 C 373.319 337.694,372.354 337.081,371.772 337.017 C 370.983 336.930,366.676 332.873,354.857 321.084 C 335.001 301.279,334.588 301.074,327.621 307.580 L 325.548 309.517 315.432 299.358 C 309.869 293.771,305.064 289.200,304.755 289.200 C 304.447 289.200,299.471 293.926,293.697 299.703 " stroke="none" fill="#8e7e8e" fill-rule="evenodd"></path><path id="path1" d="M182.000 110.234 C 170.519 110.993,152.935 116.635,145.138 122.061 C 144.554 122.467,143.879 122.800,143.638 122.800 C 143.397 122.800,143.200 122.951,143.200 123.136 C 143.200 123.320,142.782 123.662,142.272 123.894 C 139.075 125.351,128.220 134.814,123.568 140.200 C 118.862 145.648,113.073 155.000,110.195 161.800 C 108.961 164.717,108.856 164.989,108.345 166.600 C 108.065 167.480,107.693 168.371,107.518 168.580 C 107.343 168.789,107.200 169.363,107.200 169.856 C 107.200 170.349,107.040 170.852,106.844 170.973 C 106.649 171.094,106.392 171.779,106.273 172.496 C 106.155 173.213,105.854 174.610,105.604 175.600 C 103.991 181.995,103.436 187.071,103.417 195.600 C 103.392 206.800,104.558 214.311,107.792 223.789 C 114.867 244.529,130.257 262.194,150.118 272.371 C 154.644 274.690,160.574 277.206,161.505 277.202 C 161.783 277.201,162.323 277.362,162.705 277.561 C 163.087 277.760,164.210 278.140,165.200 278.407 C 166.190 278.674,167.450 279.033,168.000 279.204 C 168.967 279.504,171.327 279.988,175.700 280.781 C 186.370 282.717,201.044 281.910,211.800 278.797 C 212.680 278.543,213.897 278.238,214.505 278.121 C 215.113 278.004,215.708 277.749,215.829 277.554 C 215.949 277.359,216.476 277.200,217.000 277.200 C 217.524 277.200,218.064 277.020,218.200 276.800 C 218.336 276.580,218.709 276.400,219.028 276.400 C 220.179 276.400,228.398 272.516,233.101 269.749 C 241.237 264.964,251.983 255.517,256.930 248.800 C 257.983 247.370,259.060 245.919,259.322 245.576 C 260.756 243.705,261.600 242.385,261.600 242.016 C 261.600 241.787,261.759 241.600,261.953 241.600 C 262.148 241.600,262.410 241.285,262.536 240.900 C 262.662 240.515,263.248 239.390,263.838 238.400 C 269.022 229.707,272.437 219.647,274.426 207.205 C 275.051 203.292,275.045 188.236,274.416 184.389 C 266.786 137.713,228.693 107.147,182.000 110.234 M158.590 147.423 C 159.025 147.751,165.886 154.496,173.838 162.410 C 183.907 172.432,188.557 176.800,189.159 176.800 C 189.762 176.800,194.286 172.536,204.120 162.700 C 221.672 145.144,221.191 145.502,224.720 147.373 C 226.011 148.057,237.323 159.424,237.957 160.674 C 239.533 163.782,239.567 163.738,222.716 180.652 C 208.555 194.868,207.942 195.545,208.413 196.452 C 208.684 196.973,215.211 203.700,222.918 211.400 C 242.092 230.557,241.374 228.132,230.932 238.466 C 221.453 247.847,223.485 248.550,204.202 229.227 C 196.283 221.292,189.532 214.800,189.200 214.800 C 188.868 214.800,182.027 221.372,173.998 229.404 C 154.823 248.587,156.856 247.911,147.274 238.293 C 136.915 227.895,136.064 230.652,155.666 211.102 C 163.293 203.496,169.746 196.875,170.006 196.389 C 170.449 195.562,169.517 194.538,155.684 180.652 C 140.337 165.247,140.000 164.864,140.000 162.806 C 140.000 160.766,140.828 159.697,147.515 153.100 L 153.902 146.800 155.851 146.813 C 156.942 146.820,158.148 147.089,158.590 147.423 M293.754 247.674 C 293.541 247.964,293.105 248.740,292.785 249.400 C 285.954 263.474,271.697 280.267,258.800 289.428 C 257.590 290.287,256.251 291.307,255.825 291.695 C 255.398 292.083,254.828 292.400,254.558 292.400 C 254.288 292.400,254.007 292.542,253.933 292.714 C 253.656 293.369,251.500 294.710,244.600 298.522 C 242.620 299.616,240.925 300.576,240.832 300.656 C 240.181 301.222,254.592 314.649,257.600 316.279 C 263.195 319.310,271.814 318.862,277.174 315.262 C 279.910 313.424,307.147 286.062,308.872 283.419 C 312.857 277.310,312.833 268.656,308.813 262.432 C 306.898 259.467,294.219 247.042,293.754 247.674 " stroke="none" fill="#e9f4f8" fill-rule="evenodd"></path><path id="path2" d="M80.283 16.436 C 78.195 17.538,77.203 19.301,77.201 21.915 C 77.197 28.251,86.341 29.770,88.617 23.812 C 90.610 18.593,85.226 13.827,80.283 16.436 M5.700 43.865 C 5.055 44.125,4.955 332.601,5.600 333.000 C 5.820 333.136,6.000 334.137,6.000 335.224 C 6.000 336.311,6.180 337.200,6.400 337.200 C 6.620 337.200,6.800 337.562,6.800 338.005 C 6.800 338.896,7.431 340.140,8.500 341.355 C 8.885 341.793,9.200 342.315,9.200 342.515 C 9.200 343.030,11.830 345.600,12.357 345.600 C 12.597 345.600,13.018 345.960,13.293 346.400 C 13.568 346.840,14.109 347.200,14.496 347.200 C 14.883 347.200,15.200 347.380,15.200 347.600 C 15.200 347.820,15.740 348.000,16.400 348.000 C 17.060 348.000,17.600 348.180,17.600 348.400 C 17.600 348.620,18.309 348.800,19.176 348.800 C 20.043 348.800,20.864 348.980,21.000 349.200 C 21.321 349.720,302.000 349.758,302.000 349.238 C 302.000 349.039,301.343 348.094,300.541 347.138 C 296.532 342.364,296.676 337.745,300.967 333.454 C 303.340 331.081,304.178 332.383,292.881 320.891 C 281.767 309.584,282.747 310.259,280.604 312.433 C 276.601 316.493,272.696 318.115,266.800 318.165 C 259.049 318.230,256.492 316.781,246.432 306.624 C 243.259 303.421,240.512 300.800,240.327 300.800 C 240.142 300.800,239.138 301.181,238.096 301.647 C 234.797 303.120,233.868 303.507,231.000 304.603 C 229.460 305.192,227.840 305.817,227.400 305.993 C 214.930 310.976,189.558 313.740,175.400 311.658 C 167.223 310.456,162.793 309.552,157.300 307.967 C 156.475 307.729,155.303 307.438,154.695 307.321 C 154.087 307.204,153.492 306.949,153.371 306.754 C 153.251 306.559,152.801 306.400,152.371 306.400 C 151.941 306.400,151.277 306.234,150.895 306.032 C 150.513 305.830,149.120 305.272,147.800 304.793 C 143.488 303.228,134.605 299.061,131.097 296.957 C 128.361 295.316,119.660 289.565,118.517 288.642 C 104.883 277.635,95.786 267.244,88.015 253.800 C 74.143 229.804,69.549 201.850,74.771 173.200 C 75.116 171.308,75.847 168.333,77.179 163.400 C 77.605 161.825,79.538 156.021,79.978 155.000 C 80.167 154.560,80.731 153.120,81.231 151.800 C 93.563 119.244,127.717 89.915,161.800 82.614 C 166.606 81.585,169.440 81.059,174.000 80.350 C 178.174 79.701,196.434 79.446,201.000 79.973 C 205.347 80.475,209.284 81.074,211.800 81.616 C 212.680 81.806,214.390 82.172,215.600 82.430 C 216.810 82.688,218.250 83.036,218.800 83.203 C 219.350 83.370,220.610 83.735,221.600 84.014 C 230.595 86.547,241.082 91.095,248.549 95.702 C 250.337 96.805,252.278 97.999,252.862 98.354 C 275.223 111.956,294.968 139.256,301.788 166.000 C 302.153 167.430,302.612 169.230,302.808 170.000 C 303.579 173.025,304.411 178.062,305.185 184.400 C 305.726 188.823,305.724 203.299,305.183 207.400 C 303.870 217.341,303.447 219.468,300.814 229.400 C 300.090 232.135,298.183 237.305,296.169 241.998 L 294.024 246.996 301.146 254.198 C 308.645 261.781,309.536 262.925,310.801 266.603 C 313.135 273.385,311.766 280.194,306.857 286.227 L 304.882 288.654 315.155 298.932 L 325.428 309.209 327.014 307.572 C 330.471 304.002,334.896 302.841,338.423 304.578 C 339.180 304.951,346.825 312.353,355.411 321.028 C 370.866 336.642,372.400 337.960,372.400 335.624 C 372.400 334.977,372.580 334.336,372.800 334.200 C 373.065 334.036,373.200 285.129,373.200 188.776 L 373.200 43.600 189.700 43.632 C 88.775 43.649,5.975 43.754,5.700 43.865 " stroke="none" fill="#fbc882" fill-rule="evenodd"></path><path id="path3" d="M54.242 16.507 C 48.294 19.916,52.026 29.339,58.616 27.553 C 65.384 25.718,64.186 15.613,57.200 15.613 C 56.430 15.613,55.099 16.015,54.242 16.507 M147.515 153.100 C 140.828 159.697,140.000 160.766,140.000 162.806 C 140.000 164.864,140.337 165.247,155.684 180.652 C 169.517 194.538,170.449 195.562,170.006 196.389 C 169.746 196.875,163.293 203.496,155.666 211.102 C 136.064 230.652,136.915 227.895,147.274 238.293 C 156.856 247.911,154.823 248.587,173.998 229.404 C 182.027 221.372,188.868 214.800,189.200 214.800 C 189.532 214.800,196.283 221.292,204.202 229.227 C 223.485 248.550,221.453 247.847,230.932 238.466 C 241.374 228.132,242.092 230.557,222.918 211.400 C 215.211 203.700,208.684 196.973,208.413 196.452 C 207.942 195.545,208.555 194.868,222.716 180.652 C 239.567 163.738,239.533 163.782,237.957 160.674 C 237.323 159.424,226.011 148.057,224.720 147.373 C 221.191 145.502,221.672 145.144,204.120 162.700 C 194.286 172.536,189.762 176.800,189.159 176.800 C 188.557 176.800,183.907 172.432,173.838 162.410 C 157.066 145.716,158.349 146.829,155.851 146.813 L 153.902 146.800 147.515 153.100 " stroke="none" fill="#f89da2" fill-rule="evenodd"></path><path id="path4" d="M106.600 15.793 C 100.799 17.882,101.300 25.930,107.350 27.837 C 109.439 28.495,109.492 28.491,111.433 27.525 C 118.821 23.846,114.353 13.001,106.600 15.793 M53.726 16.380 C 53.025 16.807,52.244 17.572,51.990 18.079 C 51.579 18.899,51.631 18.884,52.464 17.936 C 52.979 17.351,53.940 16.593,54.600 16.252 C 55.260 15.911,55.620 15.625,55.400 15.618 C 55.180 15.610,54.426 15.953,53.726 16.380 M79.354 16.491 C 77.896 17.616,77.229 18.447,77.213 19.159 C 77.206 19.467,77.611 19.107,78.114 18.359 C 78.617 17.612,79.652 16.694,80.414 16.319 C 81.176 15.945,81.509 15.630,81.154 15.619 C 80.799 15.609,79.989 16.001,79.354 16.491 M85.400 16.067 C 86.804 16.843,88.086 18.164,88.635 19.400 C 89.043 20.318,89.172 20.412,89.184 19.800 C 89.207 18.568,86.226 15.576,85.011 15.612 C 84.785 15.619,84.960 15.823,85.400 16.067 M51.043 19.833 C 50.728 20.654,50.779 22.805,51.136 23.707 C 51.290 24.096,51.412 23.242,51.408 21.808 C 51.399 18.948,51.394 18.918,51.043 19.833 M76.558 21.025 C 76.416 21.589,76.491 22.444,76.723 22.925 C 77.086 23.675,77.150 23.529,77.173 21.900 C 77.203 19.803,76.954 19.448,76.558 21.025 M63.301 21.800 C 63.305 22.680,63.387 22.993,63.483 22.495 C 63.579 21.998,63.575 21.278,63.475 20.895 C 63.375 20.513,63.296 20.920,63.301 21.800 M88.424 24.342 C 86.809 28.240,80.613 28.695,78.100 25.099 C 77.605 24.391,77.200 24.028,77.200 24.292 C 77.200 25.237,79.914 27.472,81.653 27.959 C 84.494 28.754,89.804 25.612,89.115 23.544 C 89.026 23.279,88.716 23.638,88.424 24.342 M51.600 24.925 C 51.600 24.994,52.185 25.579,52.900 26.225 L 54.200 27.400 53.025 26.100 C 51.930 24.888,51.600 24.616,51.600 24.925 M19.200 43.200 C 12.270 43.319,89.040 43.430,189.800 43.446 C 290.560 43.461,371.740 43.345,370.200 43.187 C 366.994 42.858,38.341 42.870,19.200 43.200 M176.600 80.062 C 171.050 80.892,169.938 81.146,172.800 80.927 C 174.230 80.818,176.480 80.567,177.800 80.368 C 181.775 79.769,196.665 79.931,202.448 80.636 C 205.315 80.985,207.753 81.180,207.865 81.069 C 207.976 80.957,207.017 80.753,205.734 80.615 C 204.450 80.477,202.305 80.192,200.967 79.982 C 197.968 79.511,179.886 79.570,176.600 80.062 M166.600 81.620 C 166.061 81.865,166.454 81.905,167.800 81.741 C 168.900 81.607,169.875 81.431,169.967 81.349 C 170.317 81.036,167.361 81.274,166.600 81.620 M213.568 82.432 C 216.521 83.073,219.003 83.530,219.084 83.449 C 219.166 83.368,217.830 82.990,216.116 82.610 C 214.402 82.229,212.478 81.757,211.840 81.559 C 211.202 81.362,210.122 81.215,209.440 81.233 C 208.758 81.252,210.616 81.791,213.568 82.432 M163.000 82.419 C 162.442 82.671,162.685 82.707,163.800 82.538 C 164.680 82.404,165.475 82.228,165.567 82.147 C 165.910 81.844,163.768 82.071,163.000 82.419 M159.800 83.200 C 158.781 83.638,159.832 83.638,161.200 83.200 C 162.004 82.943,162.043 82.877,161.400 82.868 C 160.960 82.862,160.240 83.011,159.800 83.200 M156.800 84.000 C 156.005 84.514,157.004 84.514,158.200 84.000 L 159.000 83.656 158.200 83.634 C 157.760 83.622,157.130 83.787,156.800 84.000 M220.200 84.000 C 221.396 84.514,222.395 84.514,221.600 84.000 C 221.270 83.787,220.640 83.622,220.200 83.634 L 219.400 83.656 220.200 84.000 M152.804 85.118 C 151.816 85.458,151.193 85.798,151.418 85.873 C 151.644 85.948,152.812 85.661,154.014 85.234 C 155.216 84.807,155.840 84.468,155.400 84.480 C 154.960 84.491,153.792 84.779,152.804 85.118 M226.600 86.008 C 230.798 87.496,231.960 87.826,231.547 87.414 C 231.202 87.069,223.406 84.409,222.800 84.429 C 222.470 84.440,224.180 85.151,226.600 86.008 M148.400 86.698 C 147.410 87.048,146.795 87.398,147.034 87.478 C 147.273 87.558,148.263 87.270,149.234 86.840 C 151.359 85.897,150.894 85.818,148.400 86.698 M232.220 87.933 C 232.747 88.395,236.892 90.041,237.073 89.861 C 237.221 89.712,232.568 87.600,232.094 87.600 C 231.954 87.600,232.011 87.750,232.220 87.933 M138.600 90.959 C 129.870 95.241,114.000 105.650,114.000 107.094 C 114.000 107.325,113.998 107.327,117.800 104.314 C 124.476 99.024,141.199 89.200,143.528 89.200 C 143.761 89.200,144.064 89.020,144.200 88.800 C 144.647 88.076,143.859 88.380,138.600 90.959 M237.600 90.175 C 237.600 90.261,238.995 91.015,240.700 91.852 C 244.269 93.604,249.650 96.654,252.109 98.319 C 254.340 99.830,254.800 100.089,254.800 99.836 C 254.800 99.414,247.989 95.228,242.926 92.539 C 239.630 90.789,237.600 89.887,237.600 90.175 M255.200 100.149 C 255.200 100.252,257.304 101.917,259.876 103.849 C 264.573 107.376,274.812 117.087,277.800 120.847 C 278.680 121.955,279.591 123.072,279.826 123.330 C 280.060 123.589,281.282 125.195,282.541 126.900 C 283.801 128.605,284.931 130.000,285.053 130.000 C 285.675 130.000,279.561 122.227,274.879 117.064 C 269.472 111.101,255.200 98.834,255.200 100.149 M112.093 108.433 C 111.375 109.075,110.925 109.594,111.094 109.587 C 111.507 109.570,113.731 107.598,113.546 107.413 C 113.465 107.332,112.812 107.791,112.093 108.433 M183.151 109.379 C 183.014 109.518,181.214 109.802,179.151 110.011 C 174.573 110.474,169.849 111.347,166.200 112.403 C 165.320 112.657,164.103 112.962,163.495 113.079 C 162.887 113.196,162.292 113.451,162.171 113.646 C 162.051 113.841,161.676 114.000,161.337 114.000 C 158.561 114.000,140.008 123.480,139.267 125.277 C 139.193 125.455,138.893 125.600,138.600 125.600 C 138.307 125.600,138.007 125.735,137.933 125.900 C 137.860 126.065,136.720 127.010,135.400 128.000 C 133.082 129.739,124.796 137.746,122.775 140.200 C 119.934 143.651,116.065 149.144,114.324 152.200 C 112.441 155.503,108.649 163.589,107.946 165.800 C 107.666 166.680,107.293 167.571,107.118 167.780 C 106.943 167.989,106.800 168.486,106.800 168.885 C 106.800 169.284,106.638 169.923,106.439 170.305 C 106.098 170.961,105.565 172.811,104.797 176.000 C 104.400 177.649,103.812 180.709,103.146 184.600 C 102.520 188.253,102.522 203.363,103.149 207.000 C 104.110 212.577,104.518 214.640,105.088 216.800 C 105.408 218.010,105.812 219.540,105.987 220.200 C 106.391 221.724,107.525 225.126,108.020 226.300 C 108.229 226.795,108.557 227.605,108.749 228.100 C 108.941 228.595,109.466 229.810,109.915 230.800 C 110.364 231.790,110.971 233.185,111.263 233.900 C 111.556 234.615,111.931 235.200,112.098 235.200 C 112.264 235.200,112.400 235.456,112.400 235.768 C 112.400 236.080,113.427 238.015,114.682 240.068 C 125.010 256.959,139.242 269.036,157.600 276.487 C 158.150 276.711,158.913 277.052,159.295 277.247 C 159.677 277.441,160.341 277.600,160.771 277.600 C 161.201 277.600,161.664 277.780,161.800 278.000 C 161.936 278.220,162.399 278.400,162.829 278.400 C 163.259 278.400,163.923 278.562,164.305 278.761 C 165.418 279.339,169.779 280.397,174.200 281.161 C 180.720 282.288,183.729 282.484,191.200 282.268 C 199.640 282.024,203.237 281.579,209.600 279.991 C 210.590 279.744,211.987 279.445,212.704 279.327 C 213.421 279.208,214.106 278.951,214.227 278.756 C 214.348 278.560,214.876 278.400,215.400 278.400 C 215.924 278.400,216.464 278.220,216.600 278.000 C 216.736 277.780,217.199 277.600,217.629 277.600 C 218.059 277.600,218.723 277.441,219.105 277.247 C 219.487 277.052,220.250 276.711,220.800 276.487 C 228.222 273.475,239.606 267.091,241.600 264.823 C 241.710 264.698,242.430 264.126,243.200 263.553 C 243.970 262.979,245.170 261.977,245.866 261.326 C 246.562 260.676,247.732 259.604,248.466 258.944 C 251.152 256.532,257.260 249.699,258.291 247.954 C 258.666 247.319,259.114 246.800,259.286 246.800 C 259.459 246.800,259.600 246.545,259.600 246.233 C 259.600 245.922,259.745 245.607,259.923 245.533 C 261.054 245.067,266.326 235.688,269.358 228.747 C 270.175 226.878,272.390 220.245,272.847 218.300 C 273.041 217.475,273.393 216.035,273.628 215.100 C 276.044 205.503,276.374 190.497,274.391 180.400 C 274.154 179.190,273.859 177.524,273.737 176.697 C 273.615 175.871,273.355 175.095,273.158 174.974 C 272.961 174.852,272.800 174.322,272.800 173.795 C 272.800 173.269,272.638 172.424,272.440 171.919 C 272.242 171.413,271.810 170.100,271.481 169.000 C 269.647 162.866,262.956 149.089,261.510 148.467 C 261.339 148.393,261.200 148.112,261.200 147.842 C 261.200 147.572,260.880 147.002,260.489 146.575 C 260.098 146.149,259.342 145.170,258.808 144.400 C 258.275 143.630,257.739 142.910,257.617 142.800 C 257.495 142.690,256.879 141.908,256.248 141.061 C 254.661 138.934,247.030 131.273,244.600 129.368 C 243.500 128.506,242.510 127.701,242.400 127.581 C 242.290 127.460,241.570 126.929,240.800 126.400 C 240.030 125.871,239.310 125.328,239.200 125.193 C 238.920 124.850,235.297 122.400,235.069 122.400 C 234.966 122.400,233.648 121.650,232.141 120.734 C 229.699 119.249,227.324 118.066,222.253 115.807 C 219.946 114.779,212.526 112.400,211.629 112.400 C 211.199 112.400,210.748 112.239,210.626 112.042 C 210.505 111.845,209.729 111.585,208.903 111.463 C 208.076 111.341,206.410 111.047,205.200 110.810 C 199.757 109.745,183.811 108.710,183.151 109.379 M202.908 111.037 C 240.845 117.555,268.053 145.465,274.416 184.389 C 275.045 188.236,275.051 203.292,274.426 207.205 C 272.437 219.647,269.022 229.707,263.838 238.400 C 263.248 239.390,262.662 240.515,262.536 240.900 C 262.410 241.285,262.148 241.600,261.953 241.600 C 261.759 241.600,261.600 241.787,261.600 242.016 C 261.600 242.385,260.756 243.705,259.322 245.576 C 259.060 245.919,257.983 247.370,256.930 248.800 C 251.983 255.517,241.237 264.964,233.101 269.749 C 228.398 272.516,220.179 276.400,219.028 276.400 C 218.709 276.400,218.336 276.580,218.200 276.800 C 218.064 277.020,217.524 277.200,217.000 277.200 C 216.476 277.200,215.949 277.359,215.829 277.554 C 215.708 277.749,215.113 278.004,214.505 278.121 C 213.897 278.238,212.680 278.543,211.800 278.797 C 206.709 280.271,200.809 281.181,192.072 281.842 C 188.425 282.118,180.093 281.578,175.700 280.781 C 171.327 279.988,168.967 279.504,168.000 279.204 C 167.450 279.033,166.190 278.674,165.200 278.407 C 164.210 278.140,163.087 277.760,162.705 277.561 C 162.323 277.362,161.783 277.201,161.505 277.202 C 159.601 277.210,147.767 271.463,142.151 267.802 C 125.062 256.663,111.538 238.318,106.322 219.200 C 105.957 217.863,105.704 216.755,104.793 212.500 C 102.587 202.194,102.939 186.165,105.604 175.600 C 105.854 174.610,106.155 173.213,106.273 172.496 C 106.392 171.779,106.649 171.094,106.844 170.973 C 107.040 170.852,107.200 170.349,107.200 169.856 C 107.200 169.363,107.343 168.789,107.518 168.580 C 107.693 168.371,108.065 167.480,108.345 166.600 C 108.856 164.989,108.961 164.717,110.195 161.800 C 113.073 155.000,118.862 145.648,123.568 140.200 C 128.220 134.814,139.075 125.351,142.272 123.894 C 142.782 123.662,143.200 123.320,143.200 123.136 C 143.200 122.951,143.397 122.800,143.638 122.800 C 143.879 122.800,144.554 122.467,145.138 122.061 C 152.935 116.635,170.519 110.993,182.000 110.234 C 186.571 109.932,199.326 110.422,202.908 111.037 M106.187 114.100 L 103.800 116.600 106.300 114.213 C 108.622 111.995,108.983 111.600,108.687 111.600 C 108.626 111.600,107.501 112.725,106.187 114.100 M100.975 119.700 L 99.800 121.000 101.100 119.825 C 102.312 118.730,102.584 118.400,102.275 118.400 C 102.206 118.400,101.621 118.985,100.975 119.700 M285.456 130.900 C 285.622 131.175,286.507 132.570,287.422 134.000 C 289.189 136.761,290.988 139.938,292.914 143.700 C 294.129 146.071,294.651 146.712,294.023 145.060 C 293.073 142.561,285.858 130.400,285.326 130.400 C 285.231 130.400,285.289 130.625,285.456 130.900 M294.418 146.451 C 294.380 146.980,295.657 149.676,295.852 149.481 C 295.965 149.368,295.693 148.584,295.247 147.738 C 294.800 146.892,294.427 146.313,294.418 146.451 M296.196 150.700 C 296.351 151.085,296.847 152.349,297.297 153.508 C 297.748 154.668,298.189 155.544,298.276 155.457 C 298.474 155.259,296.391 150.000,296.115 150.000 C 296.005 150.000,296.041 150.315,296.196 150.700 M298.412 156.400 C 298.412 156.730,298.587 157.270,298.800 157.600 C 299.145 158.133,299.188 158.133,299.188 157.600 C 299.188 157.270,299.013 156.730,298.800 156.400 C 298.455 155.867,298.412 155.867,298.412 156.400 M299.212 158.800 C 299.212 159.130,299.387 159.670,299.600 160.000 C 299.945 160.533,299.988 160.533,299.988 160.000 C 299.988 159.670,299.813 159.130,299.600 158.800 C 299.255 158.267,299.212 158.267,299.212 158.800 M300.185 161.600 C 301.167 165.770,303.160 172.857,303.178 172.246 C 303.190 171.832,303.032 170.842,302.826 170.046 C 301.108 163.412,300.628 161.722,300.312 161.200 C 300.059 160.781,300.021 160.901,300.185 161.600 M303.459 175.000 C 303.593 176.100,303.769 177.075,303.851 177.167 C 304.164 177.517,303.926 174.561,303.580 173.800 C 303.335 173.261,303.295 173.654,303.459 175.000 M74.093 177.200 C 74.093 177.970,74.175 178.285,74.276 177.900 C 74.376 177.515,74.376 176.885,74.276 176.500 C 74.175 176.115,74.093 176.430,74.093 177.200 M304.008 178.033 C 304.012 178.345,304.280 180.940,304.604 183.800 C 305.268 189.669,305.388 201.659,304.828 206.071 C 304.234 210.749,303.991 214.452,304.387 212.800 C 305.697 207.333,306.005 191.949,304.979 183.151 C 304.446 178.574,303.982 176.128,304.008 178.033 M73.309 183.200 C 73.309 184.190,73.387 184.595,73.482 184.100 C 73.578 183.605,73.578 182.795,73.482 182.300 C 73.387 181.805,73.309 182.210,73.309 183.200 M72.893 187.200 C 72.893 187.970,72.975 188.285,73.076 187.900 C 73.176 187.515,73.176 186.885,73.076 186.500 C 72.975 186.115,72.893 186.430,72.893 187.200 M72.901 204.600 C 72.905 205.480,72.987 205.793,73.083 205.295 C 73.179 204.798,73.175 204.078,73.075 203.695 C 72.975 203.313,72.896 203.720,72.901 204.600 M73.301 208.600 C 73.305 209.480,73.387 209.793,73.483 209.295 C 73.579 208.798,73.575 208.078,73.475 207.695 C 73.375 207.313,73.296 207.720,73.301 208.600 M303.646 215.152 C 303.621 215.675,303.137 218.167,302.571 220.690 C 302.006 223.212,301.620 225.354,301.715 225.448 C 301.879 225.613,302.613 222.739,303.621 217.982 C 303.879 216.763,304.001 215.413,303.892 214.982 C 303.724 214.323,303.686 214.349,303.646 215.152 M301.029 227.029 C 300.881 227.615,300.851 228.184,300.961 228.294 C 301.071 228.404,301.281 228.015,301.429 227.429 C 301.576 226.842,301.606 226.273,301.496 226.163 C 301.386 226.053,301.176 226.442,301.029 227.029 M300.273 229.353 C 300.123 229.745,300.011 230.366,300.025 230.733 C 300.042 231.175,300.181 231.074,300.437 230.434 C 300.649 229.903,300.761 229.282,300.685 229.054 C 300.609 228.827,300.424 228.961,300.273 229.353 M299.400 232.400 C 299.250 232.873,299.217 233.350,299.327 233.460 C 299.437 233.570,299.650 233.273,299.800 232.800 C 299.950 232.327,299.983 231.850,299.873 231.740 C 299.763 231.630,299.550 231.927,299.400 232.400 M298.215 235.815 C 297.830 236.824,297.604 237.737,297.713 237.846 C 297.821 237.955,298.200 237.193,298.554 236.154 C 299.390 233.699,299.125 233.434,298.215 235.815 M295.968 241.519 C 295.540 242.748,292.095 249.625,290.495 252.445 C 288.995 255.089,288.603 255.756,288.296 256.180 C 288.129 256.411,287.069 258.040,285.940 259.800 C 284.162 262.575,280.676 267.401,280.018 268.000 C 279.897 268.110,278.992 269.280,278.007 270.600 C 275.721 273.664,268.002 281.409,263.600 285.055 C 256.822 290.670,249.248 295.689,241.860 299.463 C 240.793 300.008,240.016 300.550,240.134 300.667 C 240.318 300.851,244.198 298.826,249.800 295.622 C 251.900 294.421,253.767 293.107,253.933 292.714 C 254.007 292.542,254.288 292.400,254.558 292.400 C 254.828 292.400,255.398 292.083,255.825 291.695 C 256.251 291.307,257.590 290.287,258.800 289.428 C 270.460 281.145,282.419 267.676,290.311 253.937 C 293.258 248.806,296.983 240.849,296.611 240.478 C 296.497 240.364,296.208 240.832,295.968 241.519 M92.243 260.730 C 92.659 261.462,93.503 262.632,94.117 263.330 C 94.924 264.248,94.821 263.990,93.746 262.400 C 91.938 259.726,91.215 258.923,92.243 260.730 M99.200 270.125 C 99.200 270.194,99.785 270.779,100.500 271.425 L 101.800 272.600 100.625 271.300 C 99.530 270.088,99.200 269.816,99.200 270.125 M103.200 274.600 C 103.946 275.370,104.647 276.000,104.757 276.000 C 104.867 276.000,104.346 275.370,103.600 274.600 C 102.854 273.830,102.153 273.200,102.043 273.200 C 101.933 273.200,102.454 273.830,103.200 274.600 M110.400 281.800 C 111.146 282.570,111.847 283.200,111.957 283.200 C 112.067 283.200,111.546 282.570,110.800 281.800 C 110.054 281.030,109.353 280.400,109.243 280.400 C 109.133 280.400,109.654 281.030,110.400 281.800 M112.800 283.725 C 112.800 283.794,113.385 284.379,114.100 285.025 L 115.400 286.200 114.225 284.900 C 113.130 283.688,112.800 283.416,112.800 283.725 M293.429 299.571 C 286.765 306.238,282.487 310.807,282.754 310.972 C 282.999 311.123,283.200 311.010,283.200 310.721 C 283.200 310.109,303.915 289.372,304.780 289.117 C 305.124 289.016,305.195 288.844,304.955 288.696 C 304.732 288.558,299.545 293.452,293.429 299.571 M330.544 304.769 C 329.853 305.190,329.143 305.775,328.967 306.068 C 328.704 306.505,328.760 306.508,329.282 306.085 C 329.631 305.802,330.611 305.225,331.459 304.801 C 332.306 304.378,332.730 304.025,332.400 304.017 C 332.070 304.009,331.235 304.348,330.544 304.769 M337.800 304.827 C 338.790 305.319,345.426 311.639,355.212 321.411 C 363.908 330.095,371.288 337.199,371.612 337.199 C 371.935 337.198,371.660 336.862,371.000 336.452 C 370.340 336.042,363.337 329.111,355.438 321.050 C 341.923 307.258,338.340 303.978,336.831 304.016 C 336.484 304.025,336.920 304.390,337.800 304.827 M326.574 308.088 C 325.708 309.009,325.357 309.501,325.793 309.181 C 327.052 308.258,328.500 306.767,328.316 306.583 C 328.224 306.490,327.440 307.168,326.574 308.088 M171.300 311.076 C 171.685 311.176,172.315 311.176,172.700 311.076 C 173.085 310.975,172.770 310.893,172.000 310.893 C 171.230 310.893,170.915 310.975,171.300 311.076 M205.300 311.076 C 205.685 311.176,206.315 311.176,206.700 311.076 C 207.085 310.975,206.770 310.893,206.000 310.893 C 205.230 310.893,204.915 310.975,205.300 311.076 M177.700 311.887 C 178.305 311.978,179.295 311.978,179.900 311.887 C 180.505 311.795,180.010 311.720,178.800 311.720 C 177.590 311.720,177.095 311.795,177.700 311.887 M198.500 311.887 C 199.105 311.978,200.095 311.978,200.700 311.887 C 201.305 311.795,200.810 311.720,199.600 311.720 C 198.390 311.720,197.895 311.795,198.500 311.887 M183.500 312.289 C 184.215 312.378,185.385 312.378,186.100 312.289 C 186.815 312.201,186.230 312.128,184.800 312.128 C 183.370 312.128,182.785 312.201,183.500 312.289 M192.300 312.289 C 193.015 312.378,194.185 312.378,194.900 312.289 C 195.615 312.201,195.030 312.128,193.600 312.128 C 192.170 312.128,191.585 312.201,192.300 312.289 " stroke="none" fill="#adadad" fill-rule="evenodd"></path></g></svg>